<svg width="22" height="22" viewBox="0 0 22 22" fill="none" xmlns="http://www.w3.org/2000/svg">
<path d="M11 12.1653C11.6436 12.1653 12.1653 11.6436 12.1653 11C12.1653 10.3565 11.6436 9.83475 11 9.83475C10.3565 9.83475 9.83479 10.3565 9.83479 11C9.83479 11.6436 10.3565 12.1653 11 12.1653Z" fill="#007AFF"/>
<path d="M7.50428 11C7.50428 11.6436 6.98258 12.1653 6.33903 12.1653C5.69548 12.1653 5.17377 11.6436 5.17377 11C5.17377 10.3565 5.69548 9.83475 6.33903 9.83475C6.98258 9.83475 7.50428 10.3565 7.50428 11Z" fill="#007AFF"/>
<path d="M15.6611 12.1653C16.3046 12.1653 16.8263 11.6436 16.8263 11C16.8263 10.3565 16.3046 9.83475 15.6611 9.83475C15.0175 9.83475 14.4958 10.3565 14.4958 11C14.4958 11.6436 15.0175 12.1653 15.6611 12.1653Z" fill="#007AFF"/>
<path fill-rule="evenodd" clip-rule="evenodd" d="M11 0C4.92487 0 0 4.92487 0 11C0 17.0751 4.92487 22 11 22C17.0751 22 22 17.0751 22 11C22 4.92487 17.0751 0 11 0ZM1.49153 11C1.49153 5.74862 5.74862 1.49153 11 1.49153C16.2514 1.49153 20.5085 5.74862 20.5085 11C20.5085 16.2514 16.2514 20.5085 11 20.5085C5.74862 20.5085 1.49153 16.2514 1.49153 11Z" fill="#007AFF"/>
</svg>
