<svg width="20" height="20" viewBox="0 0 20 20" fill="none" xmlns="http://www.w3.org/2000/svg">
<rect x="1.335" y="1.335" width="17.33" height="17.33" rx="8.665" fill="#AF51DE"/>
<rect x="1.335" y="1.335" width="17.33" height="17.33" rx="8.665" stroke="white" stroke-width="1.33"/>
<path d="M13.9 6.3999H6.10005C5.93436 6.3999 5.80005 6.53422 5.80005 6.6999V7.2999C5.80005 7.46559 5.93436 7.5999 6.10005 7.5999H13.9C14.0657 7.5999 14.2 7.46559 14.2 7.2999V6.6999C14.2 6.53422 14.0657 6.3999 13.9 6.3999Z" fill="white"/>
<path fill-rule="evenodd" clip-rule="evenodd" d="M5.19995 6.6998C5.19995 6.20275 5.60289 5.7998 6.09995 5.7998H13.9C14.397 5.7998 14.8 6.20275 14.8 6.6998V7.2998C14.8 7.79686 14.397 8.1998 13.9 8.1998H6.09995C5.60289 8.1998 5.19995 7.79686 5.19995 7.2998V6.6998Z" fill="white"/>
<path fill-rule="evenodd" clip-rule="evenodd" d="M12.9999 10C13.3313 10 13.5999 10.2686 13.5999 10.6V14.2C13.5999 14.5314 13.3313 14.8 12.9999 14.8C12.6685 14.8 12.3999 14.5314 12.3999 14.2V10.6C12.3999 10.2686 12.6685 10 12.9999 10Z" fill="white"/>
<path fill-rule="evenodd" clip-rule="evenodd" d="M11.0756 12.2753C11.31 12.041 11.6899 12.041 11.9242 12.2753L12.9999 13.3511L14.0756 12.2753C14.31 12.041 14.6899 12.041 14.9242 12.2753C15.1585 12.5097 15.1585 12.8896 14.9242 13.1239L13.4242 14.6239C13.1899 14.8582 12.81 14.8582 12.5756 14.6239L11.0756 13.1239C10.8413 12.8896 10.8413 12.5097 11.0756 12.2753Z" fill="white"/>
<path d="M10.2274 13.9725C9.88785 13.6329 9.70005 13.1805 9.70005 12.6999C9.70005 12.2193 9.88725 11.7669 10.2274 11.4273C10.4956 11.1591 10.8334 10.9857 11.2 10.9245V10.5999C11.2 10.1373 11.3806 9.7191 11.668 9.3999H5.80005V11.7999C5.80005 13.1235 6.87645 14.1999 8.20005 14.1999H10.4548L10.2274 13.9725Z" fill="white"/>
</svg>
