<svg width="20" height="20" viewBox="0 0 20 20" fill="none" xmlns="http://www.w3.org/2000/svg">
<g clip-path="url(#clip0_59_10904)">
<rect width="20" height="20" rx="10" fill="#35AFF1"/>
<path fill-rule="evenodd" clip-rule="evenodd" d="M13.6718 5.48682C13.9292 5.48682 14.1866 5.52498 14.4562 5.65001C14.7794 5.80103 14.9499 6.0381 15.0701 6.21348C15.2273 6.47092 15.3102 6.7668 15.3096 7.06842C15.3107 7.36544 15.2358 7.65779 15.092 7.91768L10.488 15.8249C10.3868 15.9996 10.1999 16.1069 9.99788 16.1063C9.79591 16.1056 9.60969 15.9971 9.50959 15.8216L4.99089 7.93067L4.98683 7.92418C4.8837 7.75368 4.72374 7.49062 4.69532 7.15042C4.64302 6.50983 4.99384 5.90404 5.57552 5.63052C5.88082 5.48844 6.19019 5.48682 6.38507 5.48682H13.6718ZM9.43489 6.617H6.38507C6.18451 6.617 6.10737 6.62918 6.05378 6.65435C5.89875 6.72614 5.80573 6.88777 5.82155 7.05787C5.82561 7.10658 5.8451 7.16098 5.9604 7.35097L5.96771 7.36315L9.43489 13.4176V6.617ZM10.5652 13.4476L14.1136 7.3534C14.1583 7.26512 14.1811 7.16738 14.1801 7.06842C14.1801 6.98155 14.1623 6.90604 14.1217 6.82809C14.095 6.78734 14.0652 6.74878 14.0324 6.7128C14.0173 6.69635 13.9991 6.6831 13.9788 6.67383C13.8823 6.63122 13.7772 6.61175 13.6718 6.617H10.5652V13.4476Z" fill="white"/>
</g>
<defs>
<clipPath id="clip0_59_10904">
<rect width="20" height="20" fill="white"/>
</clipPath>
</defs>
</svg>
