<svg width="20" height="20" viewBox="0 0 20 20" fill="none" xmlns="http://www.w3.org/2000/svg">
<g clip-path="url(#clip0_59_10885)">
<path d="M10 20C15.5228 20 20 15.5228 20 10C20 4.47715 15.5228 0 10 0C4.47715 0 0 4.47715 0 10C0 15.5228 4.47715 20 10 20Z" fill="#009393"/>
<path fill-rule="evenodd" clip-rule="evenodd" d="M10.0116 10.7175C11.6104 10.7175 12.9467 10.4496 13.2732 10.0916C12.9959 9.78798 11.993 9.54885 10.7193 9.48342V10.2397C10.4913 10.2515 10.2542 10.2573 10.0114 10.2573C9.76846 10.2573 9.53139 10.2515 9.30291 10.2397V9.48342C8.02968 9.54885 7.02629 9.78798 6.74901 10.0916C7.07603 10.4496 8.41249 10.7175 10.0114 10.7175H10.0116ZM12.8523 7.15755V8.19908H10.7193V8.92131C12.2175 8.99848 13.3418 9.31594 13.3502 9.69583V10.4879C13.3418 10.8678 12.2175 11.1845 10.7193 11.2619V13.0344H9.30315V11.2619C7.80492 11.1847 6.68114 10.8678 6.67277 10.4879V9.69583C6.68114 9.31594 7.80492 8.99848 9.30315 8.92131V8.19908H7.17016V7.15755H12.8525H12.8523ZM6.33134 5.5H13.8192C13.9982 5.5 14.163 5.5933 14.2522 5.74489L16.4335 9.45762C16.5465 9.65022 16.513 9.89326 16.3517 10.0492L10.3472 15.8588C10.1524 16.0471 9.83959 16.0471 9.64528 15.8588L3.6482 10.0571C3.48341 9.89718 3.45226 9.64722 3.57382 9.45371L5.90576 5.73337C5.99664 5.58869 6.15795 5.50023 6.33157 5.50023L6.33134 5.5Z" fill="white"/>
</g>
<defs>
<clipPath id="clip0_59_10885">
<rect width="20" height="20" fill="white"/>
</clipPath>
</defs>
</svg>
