<svg width="17" height="14" viewBox="0 0 17 14" fill="none" xmlns="http://www.w3.org/2000/svg">
<path fill-rule="evenodd" clip-rule="evenodd" d="M8.76385 6.86115C10.6825 6.86115 12.286 6.53964 12.6778 6.11004C12.3451 5.74567 11.1416 5.45872 9.61314 5.38021V6.28779C9.33953 6.30189 9.05503 6.3088 8.76357 6.3088C8.47211 6.3088 8.18762 6.30189 7.91345 6.28779V5.38021C6.38557 5.45872 5.1815 5.74567 4.84876 6.11004C5.24119 6.53964 6.84493 6.86115 8.76357 6.86115H8.76385ZM12.1727 2.58916V3.83899H9.61314V4.70567C11.411 4.79828 12.7601 5.17923 12.7701 5.63509V6.58553C12.7601 7.0414 11.411 7.42152 9.61314 7.51441V9.64142H7.91373V7.51441C6.11586 7.42179 4.76732 7.0414 4.75728 6.58553V5.63509C4.76732 5.17923 6.11586 4.79828 7.91373 4.70567V3.83899H5.35415V2.58916H12.173H12.1727ZM4.34755 0.600098H13.333C13.5478 0.600098 13.7455 0.71206 13.8526 0.893965L16.4702 5.34924C16.6057 5.58036 16.5656 5.87201 16.372 6.05917L9.1666 13.0307C8.93287 13.2566 8.55746 13.2566 8.32428 13.0307L1.12779 6.06857C0.930043 5.87671 0.892668 5.57676 1.03854 5.34454L3.83687 0.880142C3.94592 0.706531 4.13949 0.600374 4.34783 0.600374L4.34755 0.600098Z" fill="white"/>
</svg>
